<svg width="46" height="40" viewBox="0 0 46 40" fill="none" xmlns="http://www.w3.org/2000/svg">
<path d="M35.2667 0.532593V39.4675C41.7067 35.4742 46.0001 28.1019 46.0001 19.9616C46.0001 11.8214 41.7067 4.60271 35.2667 0.532593Z" fill="#D90026"/>
<path d="M10.7333 0.532593C4.29333 4.60271 0 11.975 0 20.0384C0 28.1019 4.29333 35.4742 10.7333 39.5443V0.532593Z" fill="#D90026"/>
<path d="M31.3567 19.7312C31.05 19.5776 30.9734 19.2704 31.05 19.1168L31.8167 16.3522L29.1334 16.8898C29.0567 16.8898 28.75 16.8898 28.6734 16.3522L28.4434 15.4307L26.6034 17.5809C26.6034 17.5809 25.3767 18.8864 25.76 16.8898L26.5267 12.6661L25.07 13.434C24.9934 13.434 24.6867 13.5108 24.3034 12.7429L23 10.0551L21.62 12.5893C21.2367 13.3572 20.93 13.2804 20.8534 13.2804L19.3967 12.5125L20.1634 16.7362C20.5467 18.7329 19.32 17.4273 19.32 17.4273L17.48 15.2771L17.25 16.1986C17.0967 16.7362 16.8667 16.7362 16.79 16.7362L14.1067 16.1986L14.8734 18.9632C14.8734 19.1936 14.8734 19.424 14.5667 19.5776L13.8 20.0384C13.8 20.0384 16.8667 22.4958 17.8634 23.3405C18.0934 23.4941 18.5534 23.9549 18.4 24.4924L18.0167 25.5676L22.2334 24.9532C22.4634 24.9532 22.9234 24.9532 22.8467 25.6444L22.6167 30.0217H23.3834L23.1534 25.6444C23.1534 24.9532 23.6134 24.9532 23.7667 24.9532L27.9834 25.5676L27.6 24.4924C27.4467 23.9549 27.9067 23.4941 28.1367 23.3405C29.1334 22.4958 32.2 20.0384 32.2 20.0384L31.3567 19.7312Z" fill="#D90026"/>
</svg>
