<svg width="46" height="46" viewBox="0 0 46 46" fill="none" xmlns="http://www.w3.org/2000/svg">
<path d="M23 46C10.2975 46 -5.55246e-07 35.7025 0 23C5.55246e-07 10.2975 10.2975 -5.55246e-07 23 0C35.7025 5.55246e-07 46 10.2975 46 23C46 35.7025 35.7025 46 23 46Z" fill="#D90026"/>
<path d="M44.5519 14.95C41.2888 6.21767 32.8705 4.31454e-07 23 0C13.1295 -4.31454e-07 4.71119 6.21766 1.4481 14.95L44.5519 14.95Z" fill="black"/>
<path d="M1.4481 31.05C4.71119 39.7823 13.1295 46 23 46C32.8705 46 41.2888 39.7823 44.5519 31.05L1.4481 31.05Z" fill="#FFDB44"/>
</svg>
