<svg width="120" height="54" viewBox="0 0 120 54" fill="none" xmlns="http://www.w3.org/2000/svg">
<g filter="url(#filter0_d_184_349)">
<path d="M27.5 2L32.3271 16.1652H47.9477L35.3103 24.9197L40.1374 39.0848L27.5 30.3303L14.8626 39.0848L19.6897 24.9197L7.05228 16.1652H22.6729L27.5 2Z" fill="#D9D9D9"/>
</g>
<path d="M28.152 37.168C27.048 37.168 26.056 36.976 25.176 36.592C24.312 36.192 23.632 35.648 23.136 34.96C22.64 34.256 22.384 33.448 22.368 32.536H24.696C24.776 33.32 25.096 33.984 25.656 34.528C26.232 35.056 27.064 35.32 28.152 35.32C29.192 35.32 30.008 35.064 30.6 34.552C31.208 34.024 31.512 33.352 31.512 32.536C31.512 31.896 31.336 31.376 30.984 30.976C30.632 30.576 30.192 30.272 29.664 30.064C29.136 29.856 28.424 29.632 27.528 29.392C26.424 29.104 25.536 28.816 24.864 28.528C24.208 28.24 23.64 27.792 23.16 27.184C22.696 26.56 22.464 25.728 22.464 24.688C22.464 23.776 22.696 22.968 23.16 22.264C23.624 21.56 24.272 21.016 25.104 20.632C25.952 20.248 26.92 20.056 28.008 20.056C29.576 20.056 30.856 20.448 31.848 21.232C32.856 22.016 33.424 23.056 33.552 24.352H31.152C31.072 23.712 30.736 23.152 30.144 22.672C29.552 22.176 28.768 21.928 27.792 21.928C26.88 21.928 26.136 22.168 25.56 22.648C24.984 23.112 24.696 23.768 24.696 24.616C24.696 25.224 24.864 25.72 25.2 26.104C25.552 26.488 25.976 26.784 26.472 26.992C26.984 27.184 27.696 27.408 28.608 27.664C29.712 27.968 30.6 28.272 31.272 28.576C31.944 28.864 32.52 29.32 33 29.944C33.48 30.552 33.72 31.384 33.72 32.44C33.72 33.256 33.504 34.024 33.072 34.744C32.64 35.464 32 36.048 31.152 36.496C30.304 36.944 29.304 37.168 28.152 37.168Z" fill="#0C6A51"/>
<path d="M35.7309 32.86C35.7309 32.02 35.9009 31.285 36.2409 30.655C36.5809 30.015 37.0459 29.52 37.6359 29.17C38.2359 28.82 38.9009 28.645 39.6309 28.645C40.3509 28.645 40.9759 28.8 41.5059 29.11C42.0359 29.42 42.4309 29.81 42.6909 30.28V28.78H44.0709V37H42.6909V35.47C42.4209 35.95 42.0159 36.35 41.4759 36.67C40.9459 36.98 40.3259 37.135 39.6159 37.135C38.8859 37.135 38.2259 36.955 37.6359 36.595C37.0459 36.235 36.5809 35.73 36.2409 35.08C35.9009 34.43 35.7309 33.69 35.7309 32.86ZM42.6909 32.875C42.6909 32.255 42.5659 31.715 42.3159 31.255C42.0659 30.795 41.7259 30.445 41.2959 30.205C40.8759 29.955 40.4109 29.83 39.9009 29.83C39.3909 29.83 38.9259 29.95 38.5059 30.19C38.0859 30.43 37.7509 30.78 37.5009 31.24C37.2509 31.7 37.1259 32.24 37.1259 32.86C37.1259 33.49 37.2509 34.04 37.5009 34.51C37.7509 34.97 38.0859 35.325 38.5059 35.575C38.9259 35.815 39.3909 35.935 39.9009 35.935C40.4109 35.935 40.8759 35.815 41.2959 35.575C41.7259 35.325 42.0659 34.97 42.3159 34.51C42.5659 34.04 42.6909 33.495 42.6909 32.875ZM47.7427 30.115C47.9827 29.645 48.3227 29.28 48.7627 29.02C49.2127 28.76 49.7577 28.63 50.3977 28.63V30.04H50.0377C48.5077 30.04 47.7427 30.87 47.7427 32.53V37H46.3777V28.78H47.7427V30.115ZM61.8584 28.63C62.4984 28.63 63.0684 28.765 63.5684 29.035C64.0684 29.295 64.4634 29.69 64.7534 30.22C65.0434 30.75 65.1884 31.395 65.1884 32.155V37H63.8384V32.35C63.8384 31.53 63.6334 30.905 63.2234 30.475C62.8234 30.035 62.2784 29.815 61.5884 29.815C60.8784 29.815 60.3134 30.045 59.8934 30.505C59.4734 30.955 59.2634 31.61 59.2634 32.47V37H57.9134V32.35C57.9134 31.53 57.7084 30.905 57.2984 30.475C56.8984 30.035 56.3534 29.815 55.6634 29.815C54.9534 29.815 54.3884 30.045 53.9684 30.505C53.5484 30.955 53.3384 31.61 53.3384 32.47V37H51.9734V28.78H53.3384V29.965C53.6084 29.535 53.9684 29.205 54.4184 28.975C54.8784 28.745 55.3834 28.63 55.9334 28.63C56.6234 28.63 57.2334 28.785 57.7634 29.095C58.2934 29.405 58.6884 29.86 58.9484 30.46C59.1784 29.88 59.5584 29.43 60.0884 29.11C60.6184 28.79 61.2084 28.63 61.8584 28.63ZM66.9175 32.86C66.9175 32.02 67.0875 31.285 67.4275 30.655C67.7675 30.015 68.2325 29.52 68.8225 29.17C69.4225 28.82 70.0875 28.645 70.8175 28.645C71.5375 28.645 72.1625 28.8 72.6925 29.11C73.2225 29.42 73.6175 29.81 73.8775 30.28V28.78H75.2575V37H73.8775V35.47C73.6075 35.95 73.2025 36.35 72.6625 36.67C72.1325 36.98 71.5125 37.135 70.8025 37.135C70.0725 37.135 69.4125 36.955 68.8225 36.595C68.2325 36.235 67.7675 35.73 67.4275 35.08C67.0875 34.43 66.9175 33.69 66.9175 32.86ZM73.8775 32.875C73.8775 32.255 73.7525 31.715 73.5025 31.255C73.2525 30.795 72.9125 30.445 72.4825 30.205C72.0625 29.955 71.5975 29.83 71.0875 29.83C70.5775 29.83 70.1125 29.95 69.6925 30.19C69.2725 30.43 68.9375 30.78 68.6875 31.24C68.4375 31.7 68.3125 32.24 68.3125 32.86C68.3125 33.49 68.4375 34.04 68.6875 34.51C68.9375 34.97 69.2725 35.325 69.6925 35.575C70.1125 35.815 70.5775 35.935 71.0875 35.935C71.5975 35.935 72.0625 35.815 72.4825 35.575C72.9125 35.325 73.2525 34.97 73.5025 34.51C73.7525 34.04 73.8775 33.495 73.8775 32.875ZM79.2292 29.905V34.75C79.2292 35.15 79.3142 35.435 79.4842 35.605C79.6542 35.765 79.9492 35.845 80.3692 35.845H81.3742V37H80.1442C79.3842 37 78.8142 36.825 78.4342 36.475C78.0542 36.125 77.8642 35.55 77.8642 34.75V29.905H76.7992V28.78H77.8642V26.71H79.2292V28.78H81.3742V29.905H79.2292ZM101.908 30.295C102.178 29.825 102.578 29.435 103.108 29.125C103.648 28.805 104.273 28.645 104.983 28.645C105.713 28.645 106.373 28.82 106.963 29.17C107.563 29.52 108.033 30.015 108.373 30.655C108.713 31.285 108.883 32.02 108.883 32.86C108.883 33.69 108.713 34.43 108.373 35.08C108.033 35.73 107.563 36.235 106.963 36.595C106.373 36.955 105.713 37.135 104.983 37.135C104.283 37.135 103.663 36.98 103.123 36.67C102.593 36.35 102.188 35.955 101.908 35.485V40.9H100.543V28.78H101.908V30.295ZM107.488 32.86C107.488 32.24 107.363 31.7 107.113 31.24C106.863 30.78 106.523 30.43 106.093 30.19C105.673 29.95 105.208 29.83 104.698 29.83C104.198 29.83 103.733 29.955 103.303 30.205C102.883 30.445 102.543 30.8 102.283 31.27C102.033 31.73 101.908 32.265 101.908 32.875C101.908 33.495 102.033 34.04 102.283 34.51C102.543 34.97 102.883 35.325 103.303 35.575C103.733 35.815 104.198 35.935 104.698 35.935C105.208 35.935 105.673 35.815 106.093 35.575C106.523 35.325 106.863 34.97 107.113 34.51C107.363 34.04 107.488 33.49 107.488 32.86ZM114.684 28.63C115.684 28.63 116.494 28.935 117.114 29.545C117.734 30.145 118.044 31.015 118.044 32.155V37H116.694V32.35C116.694 31.53 116.489 30.905 116.079 30.475C115.669 30.035 115.109 29.815 114.399 29.815C113.679 29.815 113.104 30.04 112.674 30.49C112.254 30.94 112.044 31.595 112.044 32.455V37H110.679V28.78H112.044V29.95C112.314 29.53 112.679 29.205 113.139 28.975C113.609 28.745 114.124 28.63 114.684 28.63Z" fill="#478877"/>
<path d="M98.9321 23.06L93.6721 37H91.5721L86.3121 23.06H88.2521L92.6321 35.08L97.0121 23.06H98.9321Z" fill="#0B7255"/>
<defs>
<filter id="filter0_d_184_349" x="0.0522461" y="0" width="56.8955" height="53.0848" filterUnits="userSpaceOnUse" color-interpolation-filters="sRGB">
<feFlood flood-opacity="0" result="BackgroundImageFix"/>
<feColorMatrix in="SourceAlpha" type="matrix" values="0 0 0 0 0 0 0 0 0 0 0 0 0 0 0 0 0 0 127 0" result="hardAlpha"/>
<feOffset dx="1" dy="6"/>
<feGaussianBlur stdDeviation="4"/>
<feComposite in2="hardAlpha" operator="out"/>
<feColorMatrix type="matrix" values="0 0 0 0 0 0 0 0 0 0 0 0 0 0 0 0 0 0 0.25 0"/>
<feBlend mode="normal" in2="BackgroundImageFix" result="effect1_dropShadow_184_349"/>
<feBlend mode="normal" in="SourceGraphic" in2="effect1_dropShadow_184_349" result="shape"/>
</filter>
</defs>
</svg>
