<svg width="36" height="36" viewBox="0 0 36 36" fill="none" xmlns="http://www.w3.org/2000/svg">
<path d="M17.9513 17.9067L17.9513 32.9336" stroke="#1A8066" stroke-width="5.19199" stroke-linecap="round" stroke-linejoin="round"/>
<ellipse cx="18.0491" cy="18.0047" rx="3.34423" ry="3.3393" fill="#1A8066"/>
<path d="M7.30187 28.0226C4.64082 25.3653 3 21.7253 3 17.7101C3 9.57374 9.73769 2.97791 18.049 2.97791C26.3604 2.97791 33.0981 9.57374 33.0981 17.7101C33.0981 21.7253 31.4573 25.3653 28.7962 28.0226" stroke="#1A8066" stroke-width="5.19199" stroke-linecap="round"/>
<path d="M12.1967 23.8485C10.7183 22.4313 9.68848 20.1462 9.68848 18.0047C9.68848 13.6653 13.0327 9.65649 18.0491 9.65649C23.0654 9.65649 26.4096 13.6653 26.4096 18.0047C26.4096 20.1462 25.6163 22.4313 24.138 23.8485" stroke="#1A8066" stroke-width="5.19199" stroke-linecap="round"/>
</svg>
