<svg width="46" height="46" viewBox="0 0 46 46" fill="none" xmlns="http://www.w3.org/2000/svg">
<path d="M46 23C46 35.7025 35.7025 46 23 46C10.2975 46 0 35.7025 0 23C0 10.2975 10.2975 0 23 0C35.7025 0 46 10.2975 46 23Z" fill="#0052B5"/>
<path d="M17.25 12.65V0.7246C18.1866 0.483543 19.1462 0.299994 20.125 0.177945C21.0668 0.0604996 22.0264 0 23 0C23.9736 0 24.9332 0.0604996 25.875 0.177945C26.8538 0.299994 27.8134 0.483543 28.75 0.724601V15.8125L38.525 6.03C39.5787 6.99452 41.1156 8.91838 41.975 10.0625L34.5 17.25H45.2754C45.5165 18.1866 45.7 19.1462 45.8221 20.125C45.9395 21.0668 46 22.0264 46 23C46 23.9737 45.9395 24.9332 45.8221 25.875C45.7 26.8538 45.5165 27.8134 45.2754 28.75H32.775L41.4017 36.8C40.1653 38.446 38.7133 39.9207 37.0875 41.1822L28.75 32.775V45.2754C27.8134 45.5165 26.8538 45.7 25.875 45.8221C24.9332 45.9395 23.9736 46 23 46C22.0263 46 21.0668 45.9395 20.125 45.8221C19.1462 45.7 18.1866 45.5165 17.25 45.2754L17.25 30.475L7.7625 40.2288C6.47582 39.09 5.31765 37.8092 4.3125 36.4111L12.65 28.75H0.7246C0.483543 27.8134 0.299996 26.8538 0.177946 25.875C0.0605 24.9332 0 23.9737 0 23C0 22.0264 0.0604996 21.0668 0.177945 20.125C0.299994 19.1462 0.483543 18.1866 0.7246 17.25H12.9375L4.6 9.19776C5.8761 7.49927 7.38191 5.98321 9.07128 4.69571L17.25 12.65Z" fill="white"/>
<path d="M17.25 17.25L6.75333 6.71977C6.19829 7.27368 5.6714 7.85579 5.175 8.46377L14.375 17.25H17.25Z" fill="#D90026"/>
<path d="M28.75 17.25L39.2467 6.71977C39.8017 7.27367 40.3286 7.85578 40.825 8.46376L31.625 17.25H28.75Z" fill="#D90026"/>
<path d="M28.75 28.9474L39.2467 39.4776C39.8017 38.9237 40.3286 38.3416 40.825 37.7336L31.625 28.9474H28.75Z" fill="#D90026"/>
<path d="M17.25 28.9474L6.75333 39.4776C6.19829 38.9237 5.6714 38.3416 5.175 37.7336L14.375 28.9474H17.25Z" fill="#D90026"/>
<path d="M0.177945 20.125C0.0604996 21.0668 0 22.0264 0 23C0 23.9737 0.0605 24.9332 0.177946 25.875H20.125V45.8221C21.0668 45.9395 22.0263 46 23 46C23.9736 46 24.9332 45.9395 25.875 45.8221V25.875H45.8221C45.9395 24.9332 46 23.9737 46 23C46 22.0264 45.9395 21.0668 45.8221 20.125H25.875V0.177945C24.7496 0.00866319 24.1726 0 23 0C22.0264 0 21.0668 0.0604996 20.125 0.177945V20.125H0.177945Z" fill="#D90026"/>
</svg>
