<svg width="46" height="46" viewBox="0 0 46 46" fill="none" xmlns="http://www.w3.org/2000/svg">
<circle cx="23" cy="23" r="23" fill="#F2F0F2"/>
<mask id="mask0_184_230" style="mask-type:alpha" maskUnits="userSpaceOnUse" x="0" y="0" width="46" height="46">
<circle cx="23" cy="23" r="23" fill="#FCFCFC"/>
</mask>
<g mask="url(#mask0_184_230)">
<rect x="7.47498" y="40.825" width="31.625" height="5.75" fill="#D90026"/>
<rect x="7.47498" y="40.825" width="31.625" height="5.75" fill="#D90026"/>
<rect x="0.574951" y="29.325" width="45.425" height="5.75" fill="#D90026"/>
<rect x="0.574951" y="29.325" width="45.425" height="5.75" fill="#D90026"/>
<rect x="0.574951" y="17.25" width="45.425" height="5.75" fill="#D90026"/>
<rect x="0.574951" y="17.25" width="45.425" height="5.75" fill="#D90026"/>
<rect x="0.574951" y="5.75" width="45.425" height="5.75" fill="#D90026"/>
<rect x="0.574951" y="5.75" width="45.425" height="5.75" fill="#D90026"/>
<rect width="23.575" height="23" fill="#0052B5"/>
<path d="M18.975 19.2625L17.25 20.125L17.825 18.4L16.675 17.25H18.4L18.975 15.525L19.8375 17.25H21.275L20.125 18.4L20.7 20.125L18.975 19.2625Z" fill="#EFEFEF"/>
<path d="M10.925 19.2625L9.2 20.125L9.775 18.4L8.625 17.25H10.35L10.925 15.525L11.7875 17.25H13.225L12.075 18.4L12.65 20.125L10.925 19.2625Z" fill="#EFEFEF"/>
<path d="M2.87495 19.2625L1.14995 20.125L1.72495 18.4L0.574951 17.25H2.29995L2.87495 15.525L3.73745 17.25H5.17495L4.02495 18.4L4.59995 20.125L2.87495 19.2625Z" fill="#EFEFEF"/>
<path d="M18.975 12.9375L17.25 13.8L17.825 12.075L16.675 10.925H18.4L18.975 9.20001L19.8375 10.925H21.275L20.125 12.075L20.7 13.8L18.975 12.9375Z" fill="#EFEFEF"/>
<path d="M18.975 6.6125L17.25 7.475L17.825 5.75L16.675 4.6H18.4L18.975 2.875L19.8375 4.6H21.275L20.125 5.75L20.7 7.475L18.975 6.6125Z" fill="#EFEFEF"/>
<path d="M18.975 0.287488L17.25 1.14999L17.825 -0.575012L16.675 -1.72501H18.4L18.975 -3.45001L19.8375 -1.72501H21.275L20.125 -0.575012L20.7 1.14999L18.975 0.287488Z" fill="#EFEFEF"/>
<path d="M10.925 6.6125L9.2 7.475L9.775 5.75L8.625 4.6H10.35L10.925 2.875L11.7875 4.6H13.225L12.075 5.75L12.65 7.475L10.925 6.6125Z" fill="#EFEFEF"/>
<path d="M10.925 12.9375L9.2 13.8L9.775 12.075L8.625 10.925H10.35L10.925 9.20001L11.7875 10.925H13.225L12.075 12.075L12.65 13.8L10.925 12.9375Z" fill="#EFEFEF"/>
<path d="M2.87495 12.9375L1.14995 13.8L1.72495 12.075L0.574951 10.925H2.29995L2.87495 9.20001L3.73745 10.925H5.17495L4.02495 12.075L4.59995 13.8L2.87495 12.9375Z" fill="#EFEFEF"/>
</g>
</svg>
